<svg width="420" height="420" viewBox="0 0 420 420" fill="none" xmlns="http://www.w3.org/2000/svg">
<g filter="url(#filter0_d)">
<path d="M113.128 151.304C120.445 143.987 128.562 137.954 137.196 133.188C185.316 106.672 247.02 120.771 277.956 167.67L240.52 205.085C229.786 180.603 203.134 166.67 176.615 172.603C166.631 174.836 157.147 179.82 149.397 187.569L77.6587 259.334C55.8739 281.116 55.8739 316.549 77.6587 338.331C99.4436 360.114 134.879 360.114 156.664 338.331L178.782 316.215C198.9 324.198 220.468 327.382 241.77 325.798L192.95 374.613C151.097 416.462 83.2425 416.462 41.3896 374.613C-0.463207 332.765 -0.463207 264.917 41.3896 223.068L113.128 151.304V151.304ZM227.069 37.374L178.249 86.1892C199.534 84.5892 221.118 87.7891 241.236 95.7555L263.338 73.6562C285.123 51.8736 320.559 51.8736 342.343 73.6562C364.128 95.4389 364.128 130.871 342.343 152.654L270.588 224.401C248.737 246.251 213.251 246.067 191.583 224.401C186.533 219.352 182.183 213.069 179.466 206.885L142.03 244.301C145.963 250.267 150.047 255.417 155.297 260.667C168.832 274.2 186.066 284.283 205.901 289.066C231.603 295.249 259.138 291.833 282.789 278.783C291.423 274.017 299.54 267.983 306.858 260.667L378.596 188.919C420.465 147.071 420.465 79.2227 378.612 37.374C336.76 -4.45801 268.922 -4.45801 227.069 37.374V37.374Z" fill="#DCC0FF"/>
<path d="M113.128 151.304C120.445 143.987 128.562 137.954 137.196 133.188C185.316 106.672 247.02 120.771 277.956 167.67L240.52 205.085C229.786 180.603 203.134 166.67 176.615 172.603C166.631 174.836 157.147 179.82 149.397 187.569L77.6587 259.334C55.8739 281.116 55.8739 316.549 77.6587 338.331C99.4436 360.114 134.879 360.114 156.664 338.331L178.782 316.215C198.9 324.198 220.468 327.382 241.77 325.798L192.95 374.613C151.097 416.462 83.2425 416.462 41.3896 374.613C-0.463207 332.765 -0.463207 264.917 41.3896 223.068L113.128 151.304V151.304ZM227.069 37.374L178.249 86.1892C199.534 84.5892 221.118 87.7891 241.236 95.7555L263.338 73.6562C285.123 51.8736 320.559 51.8736 342.343 73.6562C364.128 95.4389 364.128 130.871 342.343 152.654L270.588 224.401C248.737 246.251 213.251 246.067 191.583 224.401C186.533 219.352 182.183 213.069 179.466 206.885L142.03 244.301C145.963 250.267 150.047 255.417 155.297 260.667C168.832 274.2 186.066 284.283 205.901 289.066C231.603 295.249 259.138 291.833 282.789 278.783C291.423 274.017 299.54 267.983 306.858 260.667L378.596 188.919C420.465 147.071 420.465 79.2227 378.612 37.374C336.76 -4.45801 268.922 -4.45801 227.069 37.374V37.374Z" stroke="#662EAE" stroke-width="12"/>
</g>
<defs>
<filter id="filter0_d" x="0" y="0" width="420" height="420" filterUnits="userSpaceOnUse" color-interpolation-filters="sRGB">
<feFlood flood-opacity="0" result="BackgroundImageFix"/>
<feColorMatrix in="SourceAlpha" type="matrix" values="0 0 0 0 0 0 0 0 0 0 0 0 0 0 0 0 0 0 127 0"/>
<feOffset dy="4"/>
<feGaussianBlur stdDeviation="2"/>
<feColorMatrix type="matrix" values="0 0 0 0 0 0 0 0 0 0 0 0 0 0 0 0 0 0 0.25 0"/>
<feBlend mode="normal" in2="BackgroundImageFix" result="effect1_dropShadow"/>
<feBlend mode="normal" in="SourceGraphic" in2="effect1_dropShadow" result="shape"/>
</filter>
</defs>
</svg>
